<svg xmlns="http://www.w3.org/2000/svg" id="Layer_1" x="0" y="0" version="1.1" viewBox="0 0 120 120" xml:space="preserve"><style>.st2{fill:#eee}.st5{fill:#263238}.st7{fill:none;stroke:#455a64;stroke-width:1.5;stroke-linecap:square;stroke-linejoin:round}.st12,.st8{stroke:#212121;stroke-width:1.5}.st8{stroke-linecap:round;stroke-linejoin:round;fill:#546e7a}.st12{fill:none}</style><g id="Logging"><circle id="back_x5F_circle_49_" cx="60" cy="60" r="50" fill="#f0f0f0" stroke="#777" stroke-dasharray="1,4" stroke-linecap="square" stroke-width="2"/><g id="pic_50_"><path fill="#999" stroke="#212121" stroke-miterlimit="10" stroke-width="1.5" d="M68 96H22c-1.6 0-3-1.3-3-3V27c0-1.6 1.4-3 3-3h46c1.7 0 3 1.4 3 3v66c0 1.7-1.3 3-3 3z"/><path d="M68 96H22c-1.6 0-3-1.3-3-3V27c0-1.6 1.4-3 3-3h34l15 15v54c0 1.7-1.3 3-3 3z" class="st2"/><path id="corner_9_" fill="#ccc" stroke="#212121" stroke-miterlimit="10" stroke-width="1.5" d="M56 23.7v12.1c0 1.8 1.5 3.3 3.2 3.3h12"/><path fill="none" stroke="#212121" stroke-miterlimit="10" stroke-width="1.5" d="M68 96H22c-1.6 0-3-1.3-3-3V27c0-1.6 1.4-3 3-3h34l15 15v54c0 1.7-1.3 3-3 3z"/><path id="headline_23_" d="M29 88h35v2H29z" class="st5"/><path id="headline_26_" d="M29 84h35v2H29z" class="st5"/><path id="headline_27_" d="M29 80h23v2H29z" class="st5"/><path d="M32 79h2v12h-2zM42 79h2v8h-2z" class="st2"/><path id="headline_22_" d="M29 76h3v2h-3z" class="st5"/><path fill="none" stroke="#546e7a" stroke-miterlimit="10" stroke-width="1.5" d="M50 63h-4.5L44 65l-2.5-4-3.5 6-4-10-2 6h-3"/><path d="M29 52h25M29 72h25" class="st7"/><path id="headline_16_" d="M29 38h23v2H29z" class="st5"/><path id="headline_25_" d="M29 42h23v2H29z" class="st5"/><path id="headline_28_" d="M29 46h3v2h-3z" class="st5"/><path id="headline_17_" d="M29 34h23v2H29z" class="st5"/><path id="headline_24_" d="M29 30h23v2H29z" class="st5"/><path d="M32 29h2v16h-2zM42 37h2v8h-2z" class="st2"/><path d="M22 58h-5c-1.1 0-2-.9-2-2s.9-2 2-2h5c1.1 0 2 .9 2 2s-.9 2-2 2zM22 66h-5c-1.1 0-2-.9-2-2s.9-2 2-2h5c1.1 0 2 .9 2 2s-.9 2-2 2zM22 74h-5c-1.1 0-2-.9-2-2s.9-2 2-2h5c1.1 0 2 .9 2 2s-.9 2-2 2zM22 82h-5c-1.1 0-2-.9-2-2s.9-2 2-2h5c1.1 0 2 .9 2 2s-.9 2-2 2zM22 90h-5c-1.1 0-2-.9-2-2s.9-2 2-2h5c1.1 0 2 .9 2 2s-.9 2-2 2zM22 50h-5c-1.1 0-2-.9-2-2s.9-2 2-2h5c1.1 0 2 .9 2 2s-.9 2-2 2zM22 42h-5c-1.1 0-2-.9-2-2s.9-2 2-2h5c1.1 0 2 .9 2 2s-.9 2-2 2zM22 34h-5c-1.1 0-2-.9-2-2s.9-2 2-2h5c1.1 0 2 .9 2 2s-.9 2-2 2z" class="st8"/><circle cx="95" cy="52" r="4" fill="#9ccc65" stroke="#212121" stroke-linecap="round" stroke-linejoin="round" stroke-width="1.5"/><circle cx="95" cy="63" r="4" fill="#ffb74d" stroke="#212121" stroke-linecap="round" stroke-linejoin="round" stroke-width="1.5"/><circle cx="95" cy="74" r="4" fill="#ef5350" stroke="#212121" stroke-linejoin="round" stroke-miterlimit="10" stroke-width="1.5"/><path d="M66 62l21-17h16" class="st12"/><circle cx="95" cy="38" r="4" fill="#29b6f6" stroke="#212121" stroke-width="1.5"/><path fill="#546e7a" stroke="#212121" stroke-width="1.5" d="M76.5 75.3l10.8 13.3c1.4 1.8 4.1 1.9 5.7.3h0c1.6-1.6 1.5-4.2-.3-5.7L79.3 72.5c-.8-.7-2-.6-2.7.1h0c-.7.7-.8 1.9-.1 2.7z"/><circle cx="66" cy="62" r="17" fill="#aed581" stroke="#212121" stroke-width="1.5"/><path fill="#8bc34a" d="M83 63h-8l-2 5-4.5-15-5 18L59 58l-2 5h-8v2l3 6 3 4 5 3 6 1 6-1 6-4 3-4z"/><path fill="none" stroke="#e91e63" stroke-width="1.5" d="M83.5 63H75l-2 5-4.5-15-5 18L59 58l-2 5h-7.5"/><circle cx="66" cy="62" r="17" class="st12"/></g></g></svg>